<svg id="visual" viewBox="0 0 900 300" width="900" height="300" xmlns="http://www.w3.org/2000/svg" xmlns:xlink="http://www.w3.org/1999/xlink" version="1.1"><path d="M0 34L75 19L150 28L225 19L300 31L375 28L450 22L525 16L600 16L675 34L750 34L825 37L900 37L900 0L825 0L750 0L675 0L600 0L525 0L450 0L375 0L300 0L225 0L150 0L75 0L0 0Z" fill="#000000"></path><path d="M0 61L75 100L150 52L225 43L300 82L375 61L450 70L525 85L600 70L675 106L750 79L825 91L900 103L900 35L825 35L750 32L675 32L600 14L525 14L450 20L375 26L300 29L225 17L150 26L75 17L0 32Z" fill="#002a41"></path><path d="M0 103L75 130L150 100L225 73L300 118L375 97L450 106L525 127L600 106L675 133L750 112L825 112L900 121L900 101L825 89L750 77L675 104L600 68L525 83L450 68L375 59L300 80L225 41L150 50L75 98L0 59Z" fill="#034b64"></path><path d="M0 127L75 154L150 121L225 118L300 148L375 124L450 163L525 145L600 154L675 160L750 157L825 166L900 157L900 119L825 110L750 110L675 131L600 104L525 125L450 104L375 95L300 116L225 71L150 98L75 128L0 101Z" fill="#376e89"></path><path d="M0 190L75 205L150 244L225 250L300 235L375 235L450 205L525 223L600 262L675 253L750 235L825 259L900 205L900 155L825 164L750 155L675 158L600 152L525 143L450 161L375 122L300 146L225 116L150 119L75 152L0 125Z" fill="#5e94b0"></path><path d="M0 301L75 301L150 301L225 301L300 301L375 301L450 301L525 301L600 301L675 301L750 301L825 301L900 301L900 203L825 257L750 233L675 251L600 260L525 221L450 203L375 233L300 233L225 248L150 242L75 203L0 188Z" fill="#86bbd8"></path></svg>